<svg id="_12" data-name="12" xmlns="http://www.w3.org/2000/svg" viewBox="0 0 281.3 281.3"><defs><style>.cls-4{fill:#3a4445}</style></defs><path d="M281.3 59.6c0-14.2-4.1-26.9-13.2-37.9A57.1 57.1 0 0 0 228.3.4c-6.8-.7-13.6-.3-20.3-.3H59.7c-9.4 0-18.5 1.6-26.8 6A57.3 57.3 0 0 0 .2 58.7C-.2 72 0 85.5 0 99v123.5a62.5 62.5 0 0 0 1.5 13.6 58.6 58.6 0 0 0 56.1 45.2h165.8a53.8 53.8 0 0 0 9.5-.8 58.6 58.6 0 0 0 48.3-57.8V59.6Z" style="fill:#ececec"/><path d="M225.6 138.5V79a23.3 23.3 0 0 0-23.2-23.3H79.2A23.3 23.3 0 0 0 55.7 79v122.9a23.5 23.5 0 0 0 23.2 23.8h123a23.4 23.4 0 0 0 23.7-23.1v-64Z" style="fill:#fdfdfd"/><path d="M176 225.6H79.5a23.5 23.5 0 0 1-23.7-23.3v-123a23.3 23.3 0 0 1 23-23.6h123.7A23.3 23.3 0 0 1 225.6 79V201.8a23.4 23.4 0 0 1-23 23.8H176Z" style="fill:#fff"/><path class="cls-4" d="M140.6 90.9H199a5.8 5.8 0 0 1 1.7 11.5 7 7 0 0 1-1.8.2H82.5a5.9 5.9 0 0 1-6.3-5.6v-.2c0-3.5 2.6-6 6.2-6h58.2ZM140.7 120.2H199a5.8 5.8 0 0 1 1.6 11.5 7 7 0 0 1-1.8.2H82.4a5.9 5.9 0 0 1-6.2-5.6v-.2c0-3.5 2.6-6 6.3-6h58.2ZM140.5 161.2H82.7c-3.8 0-6.5-2.5-6.5-6 0-3.4 2.6-5.8 6.4-5.8h116.2a6 6 0 0 1 6.3 5.2 6 6 0 0 1-4.4 6.3 7.5 7.5 0 0 1-2 .3h-58.2ZM140.6 190.5H82.7c-3.8 0-6.5-2.5-6.5-5.9 0-3.5 2.6-5.9 6.5-5.9h116a6 6 0 0 1 6 3.6 5.3 5.3 0 0 1-1 6 6 6 0 0 1-5 2.2h-58.1Z"/></svg>
