<svg id="_12" data-name="12" xmlns="http://www.w3.org/2000/svg" viewBox="0 0 193.5 95.8"><defs><style>.cls-1{fill:#101010}.cls-2{fill:#fff}</style></defs><path class="cls-1" d="M164 17.2 137.6 1.9l-26.5 15.3 26.5 15.3L164 17.2z"/><path class="cls-2" d="m110.6 16.9 27-15.6 26.9 15.6h.1v-.5l.4.2L137.6.8l-27.1 15.6v.5h.1z"/><path class="cls-2" d="m111 17.1.1.1 26.5-15.3L164 17.2l-26.4 15.3 26.9-15.6-26.9-15.6-27 15.6.4.2z"/><path class="cls-1" d="m136.5 33.1.1-.1-26-14.9V77L137 92.3v-59l-.5-.2z"/><path class="cls-2" d="m136.7 93 .3-.1v-.1l-26.5-15.3-.2.2-.3.1 27.1 15.6v-.1l-.4-.3zM137.4 32.6l.2-.1-26.5-15.3-.1-.1-.5.3 26.6 15.4.3-.2zM110.6 77V18.1l26 14.9-26.1-15v59.5L137 92.8v-.5L110.6 77zM137 56.1V33.3v22.8z"/><path class="cls-2" d="M137 32.8h.1l-26.6-15.4v.6l26.1 15 .4-.2z"/><path class="cls-1" d="M83.1 92.2 109.5 77V18L83.1 33.3V92.2z"/><path class="cls-2" d="M110.5 16.4v-.1l-.5.3h.1l.4-.2zM109.6 77.5 83.1 92.8v.6L110 77.8l-.4-.2v-.1z"/><path class="cls-2" d="M110.5 16.9v-.5l-.4.2.4.3zM110.5 77.5l-.4-.2V17.8l-.1-.1v59.5l-.4.3v.1l.4.2.3-.1.2-.2z"/><path class="cls-2" d="m110 17.7.1.1v-.1h-.1zM110.5 17.4zM110.1 17.8v59.5l.4.2V18l-.4-.2z"/><path class="cls-2" d="m110.5 17.4-.4.3v.1l.4.2v-.6zM83.1 33.3 109.5 18v59L83.1 92.2V48v44.8l26.5-15.3V18L83.1 33.3zM109.6 18v59.5l.4-.3V17.7l-.4.3z"/><path class="cls-1" d="M109 17.1 82.6 1.9 56.1 17.1l26.5 15.3L109 17.1z"/><path class="cls-2" d="m55.6 16.9 27-15.6 26.9 15.6.1-.1v-.5l.4.3L82.6.7 55.5 16.3v.5l.1.1z"/><rect class="cls-2" x="110.6" y="16.8" height=".1"/><rect class="cls-2" x="110.8" y="16.8" height=".5"/><path class="cls-2" d="M109.6 16.3v.5l.4-.2-.4-.3zM110.5 16.9v.1l.1-.1h-.1zM111 17.1l-.4-.2-.1.1v.4l.5-.3zM109.6 16.9v-.1l-.1.1h.1z"/><rect class="cls-2" x="110.1" y="16.5" height=".1"/><rect class="cls-2" x="110.3" y="16.5" height=".5"/><path class="cls-2" d="M110.1 16.6h-.1l-.4.2v.1l.5-.3z"/><path class="cls-2" d="m109.6 16.9.4.2v.6h.1v-.5l.4-.2v-.1l-.4-.3-.5.3z"/><path class="cls-2" d="m110.5 17-.4.2.4.2V17z"/><path class="cls-2" d="m110.1 17.7.4-.3-.4-.2v.5zM109.5 17.4 83.1 32.7v.6L109.6 18v-.5l-.1-.1z"/><path class="cls-2" d="M109.6 17.4h-.1l.1.1v-.1zM109.6 18l.4-.3-.4-.2v.5z"/><path class="cls-2" d="M109.6 17.4v.1l.4.2v-.6l-.4.3zM56 17.1h.1L82.6 1.9 109 17.1 82.6 32.4l26.9-15.5L82.6 1.3l-27 15.6.4.2zM83.1 32.7l26.4-15.3-.4-.2.5-.3h-.1L82.6 32.4l.5.3z"/><path class="cls-2" d="m109.6 16.9-.5.3.4.2h.1v-.5zM110 17.1l-.4-.2v.5l.4-.3z"/><path class="cls-1" d="M55.6 18v59l26.5 15.2V33.3L55.6 18zM82.1 92.2V48v44.2z"/><path class="cls-2" d="m55.5 77.5-.2.1-.3.2 27.1 15.6v-.6L55.5 77.5zM83.1 33.3l-.5.3v59.5l.5-.3V33.3z"/><path class="cls-2" d="M82.6 33v.6l.5-.3v-.6l-.5.3zM82.1 32.7l.2-.1.3-.2-26.5-15.3H56l-.5.3 26.6 15.3z"/><path class="cls-2" d="m82.1 32.7.5.3.5-.3-.5-.3-.3.2-.2.1zM55.6 77V18l26.5 15.3V48 33.3L55.5 18v59.5l26.6 15.3v-.6L55.6 77zM82.6 33.6l-.5-.3V92.8l.5.3V33.6z"/><path class="cls-2" d="M55.5 17.4v.6l26.6 15.3v-.6L55.5 17.4zM82.1 32.7v.6l.5.3V33l-.5-.3z"/><path class="cls-1" d="M28.1 33.3v58.9l26.4-15.3V18l-.2.1-26.2 15.2z"/><path class="cls-2" d="m54.6 77.5-27 15.6V33.5l-.5-.2v60.6L55 77.8l-.4-.3zM55.5 16.3v-.1l-.5.3.1.1.4-.3z"/><path class="cls-2" d="M55.5 16.8v-.5l-.4.3.4.2zM55.5 77.5l-.4-.3V17.7H55v59.5l-.4.3.4.3.3-.2.2-.1zM55 17.7h.1-.1z"/><path class="cls-2" d="m55.5 18-.4-.3v59.5l.4.3V18z"/><path class="cls-2" d="m55.5 17.4-.4.3.4.3v-.6zM54.5 18v58.9L28.1 92.2V33.3l26.2-15.2-26.7 15.4v59.6l27-15.6V17.9l-.1.1zM54.6 17.9v59.6l.4-.3V17.7l-.4.2z"/><path class="cls-1" d="M54 17.1 27.6 1.8 1.1 17.1l26.5 15.3L54 17.1z"/><path class="cls-2" d="M.1 17.1 27.6 1.3l26.9 15.5h.1v-.5l.4.2L27.6.7-.9 17.1l28 16.2v-.6L.1 17.1z"/><rect class="cls-2" x="55.6" y="16.8" height=".1"/><rect class="cls-2" x="55.8" y="16.7" height=".5"/><path class="cls-2" d="M54.6 16.3v.5l.4-.3-.4-.2zM55.5 16.8v.1h.1l-.1-.1zM56 17.1l-.4-.2h-.1v.5l.5-.3zM54.3 18.1l.2-.1-.2.1z"/><rect class="cls-2" x="55.1" y="16.5" height=".1"/><path class="cls-2" d="m27.6 33-.5-.3v.6l.5.2V33zM54.6 16.8h-.1l.1.1v-.1z"/><rect class="cls-2" x="55.3" y="16.4" height=".5"/><path class="cls-2" d="m54.6 16.9.5-.3-.1-.1-.4.3v.1zM55 17.1v.6h.1v-.6l.4-.2v-.1l-.4-.2-.5.3.4.2z"/><path class="cls-2" d="m55.5 16.9-.4.2.4.3v-.5z"/><path class="cls-2" d="m55.1 17.7.4-.3-.4-.3v.6zM54.3 18.1l.2-.1.1-.1v-.5h-.1L27.6 33v.5l26.7-15.4zM54.5 17.4h.1-.1zM54.6 17.9l.4-.2-.4-.3v.5z"/><path class="cls-2" d="m54.6 17.4.4.3v-.6l-.4.3zM27.3 32.5l27.2-15.7-27-15.5L.2 17l27 15.6Zm.3-30.7L54 17.1 27.6 32.4 1 17Z"/><path class="cls-2" d="m54.1 17.1.5-.2-.1-.1-27.2 15.7-.2.2.5.3 26.9-15.6-.4-.3z"/><path class="cls-2" d="m54.6 16.9-.5.2.4.3h.1v-.5zM55 17.1l-.4-.2v.5l.4-.3z"/><path class="cls-1" d="M165.6 77.1 192 92.4v-59l-26.4-15.3v59z"/><path class="cls-2" d="m165.5 17.5 27 15.6v60.1l-27-15.6-.3.1-.2.2 28 16.2V32.8l-27-15.6-.5.3z"/><path class="cls-2" d="m165.5 17.5.5-.3-.5-.3v.6zM164.6 16.4v.5l.4-.3-.4-.2zM192.5 93.2v-60l-27-15.7v60.1Zm-.5-.8L165.6 77V18L192 33.4Z"/><path class="cls-1" d="M138.1 33.3v59L164.5 77V18.1L138.6 33v.1l-.5.2z"/><path class="cls-1" d="m138.1 33.3.5-.2V33l-.5.3z"/><path class="cls-2" d="m164.6 77.5-26.5 15.4.4.2-.4.3L165 77.9l-.4-.2v-.2z"/><path class="cls-2" d="m165.5 77.6-.4-.2V17.7l-.1.1v59.5l-.4.2v.2l.4.2.2-.2.3-.1z"/><path class="cls-2" d="m165.5 17.5-.3.1-.1.1v59.7l.4.2V17.5zM164.5 18.1 138.6 33l25.9-14.9V77l-26.4 15.3V53.2v39.7l26.5-15.4V18l-.1.1zM164.5 18.1l.1-.1-.1.1zM164.6 77.5l.4-.2V17.8l-.4.2v59.5zM164.6 18l.4-.2-.4.2zM137 33.3l-.4-.3-.1.1.5.2zM137.4 32.5h.2l-.2.1v-.1zM136.6 33l.4.3-.4-.3zM137 32.8l-.4.2.4.3v-.5zM164.6 16.9h-.1.1zM138.1 32.7v.1l26.5-15.4v-.5h-.1l-26.9 15.6.3.2h.2z"/><path class="cls-2" d="m137.5 32.5.4.2-.3-.2h-.2.1zM165.5 17.5zM164.6 16.9l.4.3v.6l.1-.1v-.4l.4.2v-.6l-.5-.3-.4.3z"/><path class="cls-2" d="m165 17.2-.4-.3v.5l.4-.2zM165.5 17.5l-.3.1.3-.1zM165.2 17.6l.3-.1-.4-.2v.4l.1-.1zM138.1 32.8l.5.2 25.9-14.9.1-.1v-.6l-26.5 15.4z"/><path class="cls-2" d="m138.1 33.3.5-.3-.5-.2v.5zM164.6 18l.4-.2v-.6l-.4.2v.6zM138.1 32.8l26.5-15.4-26.5 15.4zM138.1 32.8zM137 92.3V56.1v36.2zM137.4 32.6l-.3.2.3-.2zM137 92.3h.1V33.4l-.1-.1v59.5-.5zM138.1 33.3v19.9-19.9zM137.5 33.6l-.2-.1-.2-.1v58.9l.4.3v-59zM137.3 33.5l.2.1-.2-.1zM138.1 33.3l-.1.1v59l.1-.1v.6-59.6z"/><path class="cls-2" d="m138.1 33.3-.5.3v59l.4-.2v-59l.1-.1zM137.6 33.6zM137.1 32.8l.2-.2.1-.1v.1l-.3.2zM137 33.3l.1.1v-.1h-.1zM137.1 32.8h-.1v.5h.1v-.5zM138.1 32.8v-.1h-.2l.2.1z"/><path class="cls-2" d="m137.1 32.8.5.2.5-.2-.2-.1-.4-.2h-.1l-.1.1-.2.2zM137.1 33.3v.1l.2.1-.2-.2z"/><path class="cls-2" d="m137.5 33.1.1-.1-.5-.2v.5l.2.2.2.1v-.5zM137.6 33v.6l.5-.3v-.5l-.5.2zM138.1 32.8zM138.1 32.8l-.5.2.5-.2z"/><path class="cls-2" d="M137.6 33.6h-.1v59h.1v-59zM137.6 33.6h-.1.1z"/><path class="cls-2" d="m137.6 33-.1.1v.5h.1V33z"/></svg>
