<svg id="_12" data-name="12" xmlns="http://www.w3.org/2000/svg" viewBox="0 0 281.3 281.3"><defs><style>.cls-4{fill:#c5cdd0}</style></defs><path d="M281.3 59.6c0-14.2-4.1-26.9-13.2-37.9A57.1 57.1 0 0 0 228.3.4c-6.8-.7-13.6-.3-20.3-.3H59.7c-9.4 0-18.5 1.6-26.8 6A57.3 57.3 0 0 0 .2 58.7C-.2 72 0 85.5 0 99v123.5a62.5 62.5 0 0 0 1.5 13.6 58.6 58.6 0 0 0 56.1 45.2h165.8a53.8 53.8 0 0 0 9.5-.8 58.6 58.6 0 0 0 48.3-57.8V59.6Z" style="fill:#ececec"/><path d="M176.1 225.6H79.5a23.5 23.5 0 0 1-23.8-23.3v-77.6l170-1v78.1a23.4 23.4 0 0 1-23 23.8H176Z" style="fill:#fff"/><path d="M225.7 79a23.3 23.3 0 0 0-23.2-23.3H79.3A23.3 23.3 0 0 0 55.8 79v19.7l-.2 26h170.1V79Z" style="fill:#3a4445"/><path class="cls-4" d="M91.4 124.6h34v101h-34zM157.4 124.6h34v101h-34z"/></svg>
