<svg id="_12" data-name="12" xmlns="http://www.w3.org/2000/svg" viewBox="0 0 281.3 281.3"><defs><style>.cls-4{fill:#3a4445}</style></defs><path d="M281.3 59.6c0-14.2-4.1-26.9-13.2-37.9A57.1 57.1 0 0 0 228.3.4c-6.8-.7-13.6-.3-20.3-.3H59.7c-9.4 0-18.5 1.6-26.8 6A57.3 57.3 0 0 0 .2 58.7C-.2 72 0 85.5 0 99v123.5a62.5 62.5 0 0 0 1.5 13.6 58.6 58.6 0 0 0 56.1 45.2h165.8a53.8 53.8 0 0 0 9.5-.8 58.6 58.6 0 0 0 48.3-57.8V59.6Z" style="fill:#ececec"/><path d="M206.8 90.4a20 20 0 0 1-.9 6.5l-.5 1.5a17.5 17.5 0 0 1-2.7 4.4l-.6.8a18.7 18.7 0 0 1-5.3 4l-1.4.7a21.6 21.6 0 0 1-2.5.9l-2.6.6a32.9 32.9 0 0 1-8.4.3c-.6 0-1.3 0-2-.2a58.3 58.3 0 0 1-13.2-3.4l-4.9-2-2.9-1.4-2.8-1.5-6.8-3.6-1.4-.7a127.4 127.4 0 0 0-13.3-5.5l-4.4-1.4a104.2 104.2 0 0 0-8.6-2l-1.3-.3a82.3 82.3 0 0 0-8.7-1h-2l-1-.1h-1.3a58.5 58.5 0 0 0-8.7.6q-2.6.3-5.2.9l-.6.1a53.7 53.7 0 0 0-7.5 2.3 57.4 57.4 0 0 0-5.8 2.6l-1.4.7-1.4.8-1.5.9-1.8 1.2-1.8 1.2a51.3 51.3 0 0 0-4.6 4 83 83 0 0 1 139.8-11.9Z" style="fill:#fdfdfd"/><path d="m223.7 137.4-.3.6-.7 1.5a33.4 33.4 0 0 1-3.5 5.7 33.2 33.2 0 0 1-2.5 2.9 32 32 0 0 1-8.7 6.4l-.8.5-1.9.8-2.9 1a39.7 39.7 0 0 1-7.6 1.6l-1.6.1-1.6.1a57 57 0 0 1-12.5-1l-1.3-.2-1.7-.4a86.2 86.2 0 0 1-12-3.7l-2.4-1A103.5 103.5 0 0 1 149 146c-3.4-2-6.7-4-10-6.2l-1.1-.7-1.5-1-4.6-2.6a83 83 0 0 0-3.1-1.7l-.8-.4-.7-.3q-3.7-1.9-7.6-3.5a84 84 0 0 0-12.4-4 67.2 67.2 0 0 0-7.7-1.3 55.5 55.5 0 0 0-7-.3 46.4 46.4 0 0 0-15.7 2.7 37.7 37.7 0 0 0-8 4 37.3 37.3 0 0 0-2.4 1.9 34.3 34.3 0 0 0-3.3 2.9l-1.5 1.6-.8.9-1.3 1.6-.7 1.2-.8 1.3-.5.7V139a82.6 82.6 0 0 1 9.4-36.8 47.4 47.4 0 0 1 11.1-8l1.3-.7h.1a57.4 57.4 0 0 1 5.7-2.6h.1a53.7 53.7 0 0 1 7.5-2.3l.6-.1 5.2-1a66 66 0 0 1 10-.5h1l2 .1a82.3 82.3 0 0 1 8.7 1l1.3.2a90.3 90.3 0 0 1 8.6 2l4.4 1.5a91.3 91.3 0 0 1 13.3 5.5l1.4.7 6.8 3.6 2.8 1.5a106.8 106.8 0 0 0 7.8 3.4 58.3 58.3 0 0 0 13.2 3.4l2 .2a32.9 32.9 0 0 0 8.4-.3l2.6-.6a21.6 21.6 0 0 0 2.5-.9l1.4-.7a18.7 18.7 0 0 0 5.3-4l.6-.8a17.5 17.5 0 0 0 2.7-4.4l.5-1.5a20 20 0 0 0 1-6.5 82.6 82.6 0 0 1 16.6 44.3l.2 2.7Z" style="fill:#c5cdd0"/><path class="cls-4" d="M223.7 140.7a83 83 0 0 1-166 2.2l.4-.7a34.4 34.4 0 0 1 2.8-4.1l.8-.9 1.5-1.6a34.3 34.3 0 0 1 3.3-3 52.1 52.1 0 0 1 2.5-1.8 37.7 37.7 0 0 1 8-4 46.4 46.4 0 0 1 15.5-2.7 55.5 55.5 0 0 1 7.1.3 67.2 67.2 0 0 1 7.7 1.4 60 60 0 0 1 6.3 1.7 84 84 0 0 1 6.1 2.2q3.9 1.6 7.6 3.5l.7.3.8.4a52.7 52.7 0 0 1 3 1.7l4.7 2.7 1.5 1 1.1.6a180.5 180.5 0 0 0 21 11.7l1.6.7 2.4 1a86.2 86.2 0 0 0 12 3.7l1.7.4 1.3.2a57 57 0 0 0 12.5 1h1.6l1.6-.2a39.8 39.8 0 0 0 7.6-1.6l2.9-1 1.9-.8.8-.5a32 32 0 0 0 8.7-6.4 33.2 33.2 0 0 0 2.5-3l.7-.8a29.7 29.7 0 0 0 1.6-2.6c.5-.7.9-1.5 1.2-2.2l.7-1.5.3-.6v3.3Z"/><path class="cls-4" d="m213.9 183.3 1.6-2.6q-.7 1.4-1.6 2.6Z"/></svg>
