<svg id="_12" data-name=" 12" xmlns="http://www.w3.org/2000/svg" viewBox="0 0 281.317 281.312"><defs><style>.cls-1{fill:#ececec;}.cls-2{fill:#3a4445;}.cls-3{fill:#fcfafa;}.cls-4{fill:#4e616c;}</style></defs><path class="cls-1" d="M281.317,59.616c.023-14.186-4.162-26.915-13.181-37.888A57.125,57.125,0,0,0,228.283.4c-6.752-.67-13.539-.289-20.3-.289Q133.841.039,59.7.062c-9.435,0-18.511,1.676-26.847,6.07C11.755,17.231.7,34.828.159,58.691-.154,72.115.089,85.549.1,98.972Q.118,119.836.159,140.7c-.023.427-.058.855-.058,1.283q0,40.269-.023,80.539a62.506,62.506,0,0,0,1.514,13.585c5.666,25.713,29.749,45.16,56.109,45.183q82.916.053,165.819.023a53.763,53.763,0,0,0,9.457-.844,58.6,58.6,0,0,0,48.328-57.774q.018-20.671,0-41.356,0-20.325-.058-40.628c.024-1.04.07-2.081.07-3.11Q281.317,98.6,281.317,59.616Z"/><path class="cls-2" d="M225.6,78.987a23.323,23.323,0,0,0-23.157-23.251q-61.6-.069-123.2-.011A23.346,23.346,0,0,0,55.71,78.883c0,.158,0,.316,0,.474-.023,6.405,0,12.81,0,19.215l-.069,42.108c.023,1.214.058,2.428.058,3.654q.018,28.737,0,57.473a23.869,23.869,0,0,0,.566,5.434A23.392,23.392,0,0,0,79.448,225.6q48.315.035,96.632-.023c1.527,0,23.159.035,25.8.035a23.43,23.43,0,0,0,23.726-23.129c0-.226,0-.451,0-.677q.018-11.255,0-22.511.035-19.318.07-38.616c-.023-.74-.058-1.468-.058-2.2C225.611,118.655,225.642,98.815,225.6,78.987Zm-41.328,29.981a48.865,48.865,0,0,1-8.32,22.679c-8.289,11.726-19.479,18.7-33.983,19.081-16.554.438-29.006-7.223-37.9-20.921a48.636,48.636,0,0,1-7.126-20.844c-2.307-.918-3.052-2.811-3.066-5.084a5.493,5.493,0,0,1,3.615-5.217,5.313,5.313,0,0,1,5.815.838c3.179,2.6,3.016,6.663-.3,9.329a39.069,39.069,0,0,0,7.782,20.487c7.136,9.615,16.647,15.23,28.732,15.6,15.31.468,29.08-8.765,35.376-23.31A36.686,36.686,0,0,0,178.2,108.82c-2.588-2.076-3.271-4.862-1.85-7.546a5.912,5.912,0,0,1,6.5-2.889,5.784,5.784,0,0,1,4.476,6.051C187.172,106.479,186.374,108.189,184.271,108.968Z"/><path class="cls-3" d="M181.565,101.171c-1.7-.043-2.894,1.212-2.977,3.159a18.541,18.541,0,0,1-.386,4.489,36.686,36.686,0,0,1-3.308,12.786c-6.3,14.545-20.066,23.778-35.376,23.31-12.085-.369-21.6-5.984-28.732-15.6A39.069,39.069,0,0,1,103,108.828a18.232,18.232,0,0,1-.378-4.488c-.09-1.942-1.284-3.2-2.978-3.17s-2.849,1.317-2.851,3.278c0,1.5.091,3.009.142,4.514a48.636,48.636,0,0,0,7.126,20.844c8.9,13.7,21.349,21.359,37.9,20.921,14.5-.384,25.694-7.355,33.983-19.081a48.865,48.865,0,0,0,8.32-22.679c.051-1.5.143-3.008.142-4.512C184.412,102.492,183.268,101.214,181.565,101.171Z"/><path class="cls-4" d="M99.648,101.171c1.694-.034,2.888,1.228,2.978,3.17a18.232,18.232,0,0,0,.378,4.488c3.315-2.666,3.478-6.73.3-9.329a5.313,5.313,0,0,0-5.815-.838,5.493,5.493,0,0,0-3.615,5.217c.014,2.273.759,4.166,3.066,5.084-.051-1.5-.143-3.009-.142-4.514C96.8,102.488,97.95,101.206,99.648,101.171Z"/><path class="cls-4" d="M182.855,98.384a5.912,5.912,0,0,0-6.5,2.889c-1.421,2.684-.738,5.47,1.85,7.546a18.541,18.541,0,0,0,.386-4.489c.083-1.947,1.278-3.2,2.977-3.159s2.847,1.321,2.848,3.285c0,1.5-.091,3.008-.142,4.512,2.1-.779,2.9-2.489,3.06-4.533A5.783,5.783,0,0,0,182.855,98.384Z"/></svg>
