<svg id="_12" data-name="12" xmlns="http://www.w3.org/2000/svg" viewBox="0 0 281.3 281.3"><defs><style>.cls-2{fill:#ffd900}.cls-3{fill:#fff}.cls-4{fill:#3a4445}</style></defs><path d="M281.3 59.6c0-14.2-4.1-26.9-13.2-37.9A57.1 57.1 0 0 0 228.3.4c-6.8-.7-13.6-.3-20.3-.3H59.7c-9.4 0-18.5 1.6-26.8 6A57.3 57.3 0 0 0 .2 58.7C-.2 72 0 85.5 0 99v123.5a62.5 62.5 0 0 0 1.5 13.6 58.6 58.6 0 0 0 56.1 45.2h165.8a53.8 53.8 0 0 0 9.5-.8 58.6 58.6 0 0 0 48.3-57.8V59.6Z" style="fill:#ececec"/><path class="cls-2" d="M98.5 232.9h84.3v.3H98.5z"/><path class="cls-3" d="M81.6 78.9h16.9v15.4H81.6zM199.7 94.4h16.9V187h-16.9z"/><path class="cls-3" d="M182.8 186.9h16.9v15.4h-16.9zM81.6 186.9h16.9v15.4H81.6z"/><path class="cls-3" d="M64.8 94.4h16.9V187H64.8zM98.5 202.4h84.3v15.4H98.5zM98.5 63.5h84.3v15.4H98.5zM182.8 78.9h16.9v15.4h-16.9z"/><path class="cls-2" d="M47.9 94.4h16.9V187H47.9zM216.6 94.4h16.9V187h-16.9zM64.8 186.9h16.9v15.4H64.8zM81.6 202.4h16.9v15.4H81.6zM98.5 217.8h84.3v15.1H98.5zM182.8 202.4h16.9v15.4h-16.9zM199.7 186.9h16.9v15.4h-16.9zM64.8 78.9h16.9v15.4H64.8zM81.6 63.5h16.9v15.4H81.6zM199.7 78.9h16.9v15.4h-16.9zM182.8 63.5h16.9v15.4h-16.9zM98.5 48.1h84.3v15.4H98.5zM81.6 94.4v92.5h118.1V94.4ZM98.5 186.9h84.3v15.4H98.5zM98.5 78.9h84.3v15.4H98.5z"/><path class="cls-4" d="M104.4 157.1v-33h6.6v6.7h6.6v6.6H111V157Zm19.8 0V144h-6.6v-6.5h6.6v-13.2h6.6v33ZM137.4 157.1v-33h13.1v6.7H144v6.6h6.6v6.6H144V157ZM163.7 157.1v-26.3h-6.6v-6.6H177v6.6h-6.6V157Z"/></svg>
