<svg xmlns="http://www.w3.org/2000/svg" id="Ebene_1" data-name="Ebene 1" viewBox="0 0 340.8 87.9"><defs><style>.cls-1,.cls-2{fill:#fff}.cls-2{fill-rule:evenodd}</style></defs><path class="cls-1" d="M143.7 66.8h-11l-12-20.5V64.9c0 1.4-.4 2-1.8 1.9h-11.1V21.3H119c1.4 0 1.8.4 1.8 1.8v.4l-.2 17.6L132 21.3h12a1.9 1.9 0 0 1 1.2 2.8l-11.1 19.8 11.4 20.3a2 2 0 0 1-1.8 2.6Z"/><path class="cls-2" d="M216.5 21.3c-13.3 0-23.1 9.1-23 22.7 0 13.2 9.2 22.3 23 22.8 12.8-.6 23.1-9.2 23.1-22.8 0-13.8-10-22.7-23-22.7Zm0 33.6a10.9 10.9 0 1 1 11-10.9 10.9 10.9 0 0 1-11 10.9ZM167.2 21.3c-13.4 0-23.2 9.1-23.1 22.7 0 13.2 9.2 22.3 23.1 22.8 12.7-.6 23-9.2 23-22.8 0-13.8-10-22.7-23-22.7Zm0 33.6A10.9 10.9 0 1 1 178 44 10.9 10.9 0 0 1 167.2 55Z"/><path class="cls-1" d="M289 64.3v.5c0 .7-.3 1.2-.8 1.5a.3.3 0 0 1-.2 0 .8.8 0 0 1-.2 0 .3.3 0 0 1-.1.1h-11.5l-.2-18.8a.3.3 0 0 1 0-.2.1.1 0 0 1-.1 0l-.2.1a.3.3 0 0 1 0 .1h-.1l-.2.2-1.3 1-1 .9a2.3 2.3 0 0 0-.2.2l-5.2 4.5a3.1 3.1 0 0 1-1.6.8 2 2 0 0 1-.4 0 3.3 3.3 0 0 1-1.7-.8c-1.5-1.1-3.5-3.1-5.4-4.7l-2.8-2.4a1.1 1.1 0 0 0 0 .3l-.3 18.9-11.5-.1a3 3 0 0 1-.5-.1c-.5-.3-.7-.8-.7-1.5a.4.4 0 0 1 0-.1V23a1.4 1.4 0 0 1 .8-1.5 3.9 3.9 0 0 1 .8 0l11.2 9c3.1 2.4 6 4.3 9.1 6.8a2.3 2.3 0 0 0 1 .5.8.8 0 0 0 .2 0 1 1 0 0 0 .2 0 2.2 2.2 0 0 0 1-.5c1-1 8.8-6.7 9-6.9l11.2-8.9a6.3 6.3 0 0 1 .8 0 1.4 1.4 0 0 1 .9 1.5v.6ZM328.3 56.8v4.5-2 7.2h-33.8a1.4 1.4 0 0 1-.3 0 1.3 1.3 0 0 1-1.1-1.3V64l17.4-31.6h-17.4v-9c0-1.4.6-1.8 1.8-1.8h33c2.2 0 1.5 1.1 1 2.2L314 51.7l-2 4 1.4-.1h13.7a1.2 1.2 0 0 1 1.2 1.2Z"/><path class="cls-2" d="m79.3 41-6.2-29.5-29.5 6.2A30.2 30.2 0 1 0 79.3 41Zm-8 20.1a25.8 25.8 0 0 1-16.2 11 25.4 25.4 0 1 1-10.5-49.7L69.4 17 74.7 42A25.4 25.4 0 0 1 71.2 61Z"/><path class="cls-1" d="M84 40 76.8 6 42.6 13a34.9 34.9 0 0 0 9.5 69 39.2 39.2 0 0 0 4.9-.7 34.5 34.5 0 0 0 22-15.2A34.2 34.2 0 0 0 84 40ZM55 72.1a25.4 25.4 0 1 1-10.5-49.7L69.4 17 74.7 42A25.4 25.4 0 0 1 71.2 61a25.8 25.8 0 0 1-16.1 11Z"/><path class="cls-1" d="M44.8 58.3C34 58.3 28.4 52.6 24 48c-4-4-6.7-7-12.8-7a5.7 5.7 0 0 1 0-11.3c10.8 0 16.4 5.8 21 10.4 3.8 4 6.7 7 12.7 7s9-3 12.9-7c4.5-4.6 10-10.4 20.9-10.4A24.4 24.4 0 0 1 95.2 36a5.7 5.7 0 1 1-7.3 8.6 13.1 13.1 0 0 0-9.3-3.5c-6 0-8.9 3-12.8 7-4.5 4.6-10.1 10.3-21 10.3Z"/></svg>
