<svg id="_12" data-name="12" xmlns="http://www.w3.org/2000/svg" viewBox="0 0 281.3 281.3"><defs><style>.cls-1{fill:#ececec}.cls-4{fill:#fff}</style></defs><path class="cls-1" d="M281.3 59.6c0-14.2-4.1-26.9-13.2-37.9A57.1 57.1 0 0 0 228.3.4c-6.8-.7-13.6-.3-20.3-.3H59.7c-9.4 0-18.5 1.6-26.8 6A57.3 57.3 0 0 0 .2 58.7C-.2 72 0 85.5 0 99v123.5a62.5 62.5 0 0 0 1.5 13.6 58.6 58.6 0 0 0 56.1 45.2h165.8a53.8 53.8 0 0 0 9.5-.8 58.6 58.6 0 0 0 48.3-57.8V59.6Z"/><path class="cls-1" d="M219.5 188.7v22.6a23.4 23.4 0 0 1-23 23.8H73.2a23.4 23.4 0 0 1-23.2-18.4 23.8 23.8 0 0 1-.5-5.5V88.8a23.3 23.3 0 0 1 23-23.6h123.7a23.3 23.3 0 0 1 23.2 23.2V188.7Z"/><path d="m225.6 79-84.7 66.8-85.2-64.7v120.7a23.9 23.9 0 0 0 .6 5.4 23.4 23.4 0 0 0 23.1 18.4H202a23.4 23.4 0 0 0 23.7-23.1V79Z" style="fill:#c5cdd0"/><path d="M225.6 79a23.3 23.3 0 0 0-23.2-23.3H79.2A23.3 23.3 0 0 0 55.7 79V81l85.2 64.7Z" style="fill:#fdfdfd"/><path class="cls-4" d="M203.8 101.7c-3.4-2-6.8-4-9.7-6.8a30.3 30.3 0 0 1-5.7-34.8l1-2a30.8 30.8 0 0 1 21-14.4 30.3 30.3 0 0 1 20.2 56.1l-.6.5a48.4 48.4 0 0 1-8.3 3 30.9 30.9 0 0 1-16.5-1.2l-1.4-.4Zm-15.5-28.2a27.3 27.3 0 1 0 27.3-27.2 27.3 27.3 0 0 0-27.3 27.2Z"/><path d="M188.3 73.5a27.3 27.3 0 1 1 27.2 27.3 27.3 27.3 0 0 1-27.2-27.3Z" style="fill:#ffd900"/><path class="cls-4" d="M218.8 62.7v23.7h-5v-19h-.2l-5.4 3.4v-4.4l5.9-3.7Z"/></svg>
